<?xml version="1.0" encoding="UTF-8"?><!DOCTYPE svg PUBLIC "-//W3C//DTD SVG 1.1//EN" "http://www.w3.org/Graphics/SVG/1.1/DTD/svg11.dtd"><svg xmlns="http://www.w3.org/2000/svg" xmlns:xlink="http://www.w3.org/1999/xlink"><symbol id="arrow-down"><path d="m16 31 15-15h-9V0H10v16H1z"/></symbol><symbol id="crying2"><path d="M16 0C7.163 0 0 7.163 0 16s7.163 16 16 16 16-7.163 16-16S24.837 0 16 0zm-6 23a1 1 0 0 1-2 0v-2a1 1 0 0 1 2 0v2zm0-6a1 1 0 0 1-2 0v-2a1 1 0 0 1 2 0v2zm1-5H7a1 1 0 0 1 0-2h4a1 1 0 0 1 0 2zm8.707 14.457a.997.997 0 0 1-1.414 0C18.15 26.314 17.374 26 16 26s-2.15.314-2.293.457a1 1 0 0 1-1.414-1.414C13.234 24.102 15.199 24 16 24s2.766.102 3.707 1.043a.999.999 0 0 1 0 1.414zM24 23a1 1 0 0 1-2 0v-2a1 1 0 0 1 2 0v2zm0-6a1 1 0 0 1-2 0v-2a1 1 0 0 1 2 0v2zm1-5h-4a1 1 0 0 1 0-2h4a1 1 0 0 1 0 2z"/></symbol><symbol id="eye"><path d="M16 6C9.021 6 2.972 10.064 0 16c2.972 5.936 9.021 10 16 10s13.027-4.064 16-10c-2.972-5.936-9.021-10-16-10zm7.889 5.303A15.212 15.212 0 0 1 28.559 16a15.223 15.223 0 0 1-4.67 4.697C21.527 22.204 18.799 23 16 23s-5.527-.796-7.889-2.303A15.212 15.212 0 0 1 3.441 16a15.223 15.223 0 0 1 5.041-4.925 8 8 0 1 0 15.036 0c.124.074.248.15.371.228zM16 13a3 3 0 1 1-6 0 3 3 0 0 1 6 0z"/></symbol><symbol id="map2"><path d="M21 6 11 2 0 6v24l11-4 10 4 11-4V2L21 6zm-9-1.446 8 3.2v19.692l-8-3.2V4.554zM2 7.401l8-2.909v19.744l-8 2.909V7.401zm28 17.198-8 2.909V7.764l8-2.909v19.744z"/></symbol><symbol id="pie-chart"><path d="M14 18V4C6.268 4 0 10.268 0 18s6.268 14 14 14 14-6.268 14-14a13.94 13.94 0 0 0-1.476-6.262L14 18zM28.524 7.738C26.225 3.15 21.481 0 16 0v14l12.524-6.262z"/></symbol><symbol id="play3"><path d="m6 4 20 12L6 28z"/></symbol><symbol id="redo"><path d="M0 18a15.96 15.96 0 0 0 5.417 12l2.646-3A11.973 11.973 0 0 1 4 18C4 11.373 9.373 6 16 6c3.314 0 6.314 1.343 8.485 3.515L20 14h12V2l-4.687 4.687A15.946 15.946 0 0 0 16 2C7.163 2 0 9.163 0 18z"/></symbol><symbol id="shield"><path d="M30 0 16 4 2 0s-.141 1.616 0 4l14 4.378L30 4c.141-2.384 0-4 0-4zM2.256 6.097C3.006 13.931 5.803 27.104 16 32c10.197-4.896 12.995-18.069 13.744-25.903L16 11.264 2.256 6.097z"/></symbol><symbol id="spinner7"><path d="M13 29a3 3 0 1 1 6 0 3 3 0 0 1-6 0zM0 16a3 3 0 1 1 6 0 3 3 0 0 1-6 0zm26 0a3 3 0 1 1 6 0 3 3 0 0 1-6 0zM3.808 6.808a3 3 0 1 1 6 0 3 3 0 0 1-6 0zm18.384 18.384a3 3 0 1 1 6 0 3 3 0 0 1-6 0zm-18.384 0a3 3 0 1 1 6 0 3 3 0 0 1-6 0zM22.192 6.808a3 3 0 1 1 6 0 3 3 0 0 1-6 0z"/></symbol><symbol id="wink2"><path d="M16 0C7.163 0 0 7.163 0 16s7.163 16 16 16 16-7.163 16-16S24.837 0 16 0zm6 8c1.105 0 2 1.343 2 3s-.895 3-2 3-2-1.343-2-3 .895-3 2-3zM11 9.752c1.864 0 3.188.698 3.188 1.79 0 .231.119 1.344-.005 1.55-.463-.768-1.713-1.318-3.182-1.318s-2.719.55-3.182 1.318c-.124-.206-.005-1.319-.005-1.55 0-1.092 1.324-1.79 3.187-1.79zM15.636 26c-3.726 0-6.996-2.009-8.84-5.03 2.2 1.721 6.079 2.057 10.165 1.249 4.383-.866 7.785-2.861 9.014-5.519-.677 5.249-5.047 9.299-10.339 9.299z"/></symbol></svg>